<svg xmlns="http://www.w3.org/2000/svg" style="display: none;">
  <symbol id="icon-up" viewBox="0 0 35 35">
    <path d="M17.5 8.75l-12.25 17.5h6.25v8.75h12.5v-8.75h6.25z"/>
  </symbol>
  <symbol id="icon-down" viewBox="0 0 35 35">
    <path d="M17.5 26.25l12.25-17.5h-6.25v-8.75h-12.5v8.75h-6.25z"/>
  </symbol>
  <symbol id="icon-export" viewBox="0 0 35 35">
    <path d="M29.94 8.44V2.5a1.56 1.56 0 0 0-1.56-1.56H7.5a1.56 1.56 0 0 0-1.56 1.56v5.94H0v9.38h6.94v11.25H17.5V18.81h11.44V8.44zM9.06 4.06h16.88v4.38H9.06zm16.88 26.25H9.06v-9.38h16.88z"/>
  </symbol>
  <symbol id="icon-import" viewBox="0 0 35 35">
    <path d="M29.94 26.25V20.31a1.56 1.56 0 0 0-1.56-1.56H7.5a1.56 1.56 0 0 0-1.56 1.56v5.94H0V35h6.94v-9.38h11.56v-6.37H28.5V35h6.94v-8.75zM9.06 22.69h16.88v4.38H9.06zm16.88-14.06H9.06V4.06h16.88z"/>
  </symbol>
</svg>
