<svg xmlns="http://www.w3.org/2000/svg" style="display: none;">
  <symbol id="icon-left" viewBox="0 0 30 30" width="30" height="30">
    <path stroke="currentColor" stroke-linecap="round" stroke-linejoin="round" stroke-width="2" d="m15 19-7-7 7-7"/>
  </symbol>
  <symbol id="icon-right" viewBox="0 0 30 30" width="30" height="30">
    <path stroke="currentColor" stroke-linecap="round" stroke-linejoin="round" stroke-width="2" d="m9 5 7 7-7 7"/>
  </symbol>
  <symbol id="icon-export" viewBox="0 0 30 30" width="30" height="30">
    <path stroke="currentColor" stroke-linecap="round" stroke-linejoin="round" stroke-width="2" d="M4 15v2a3 3 0 0 0 3 3h10a3 3 0 0 0 3-3v-2m-8 1V4m0 12-4-4m4 4 4-4"/>
  </symbol>
  <symbol id="icon-import" viewBox="0 0 30 30" width="30" height="30">
    <path stroke="currentColor" stroke-linecap="round" stroke-linejoin="round" stroke-width="2" d="M4 15v2a3 3 0 0 0 3 3h10a3 3 0 0 0 3-3v-2M12 4v12m0-12 4 4m-4-4L8 8"/>
  </symbol>
  <symbol id="icon-download" viewBox="0 0 30 30" width="30" height="30">
    <path fill="currentColor" fill-rule="evenodd" d="M9 2.221V7H4.221a2 2 0 0 1 .365-.5L8.5 2.586A2 2 0 0 1 9 2.22ZM11 2v5a2 2 0 0 1-2 2H4v11a2 2 0 0 0 2 2h12a2 2 0 0 0 2-2V4a2 2 0 0 0-2-2h-7Zm.394 9.553a1 1 0 0 0-1.817.062l-2.5 6A1 1 0 0 0 8 19h8a1 1 0 0 0 .894-1.447l-2-4A1 1 0 0 0 13.2 13.4l-.53.706-1.276-2.553ZM13 9.5a1.5 1.5 0 1 1 3 0 1.5 1.5 0 0 1-3 0Z" clip-rule="evenodd"/>
  </symbol>
  <symbol id="icon-edit" viewBox="0 0 30 30" width="30" height="30">
    <path stroke="currentColor" stroke-linecap="round" stroke-linejoin="round" stroke-width="2" d="m14.304 4.844 2.852 2.852M7 7H4a1 1 0 0 0-1 1v10a1 1 0 0 0 1 1h11a1 1 0 0 0 1-1v-4.5m2.409-9.91a2.017 2.017 0 0 1 0 2.853l-6.844 6.844L8 14l.713-3.565 6.844-6.844a2.015 2.015 0 0 1 2.852 0Z"/>
  </symbol>
</svg>
