<svg xmlns="http://www.w3.org/2000/svg" style="display: none;">
  <symbol id="icon-download" viewBox="0 0 35 35">
    <path d="M28.88,27.34h-2.59V25.41c0-0.86-0.7-1.56-1.56-1.56H8.26c-0.86,0-1.56,0.7-1.56,1.56v1.93H4.1  c-1.14,0-2.06-0.93-2.06-2.06V11.88c0-1.14,0.93-2.06,2.06-2.06h6.6V8.85c0-0.86,0.7-1.56,1.56-1.56h10.48  c0.86,0,1.56,0.7,1.56,1.56v1.97h6.6c1.14,0,2.06,0.93,2.06,2.06v13.4C30.94,26.41,30.02,27.34,28.88,27.34z M10.68,11.88  c-0.86,0-1.56,0.7-1.56,1.56v11.29c0,0.86,0.7,1.56,1.56,1.56h13.64c0.86,0,1.56-0.7,1.56-1.56V13.44  c0-0.86-0.7-1.56-1.56-1.56H10.68z M27.32,23.28c0,0.39-0.32,0.7-0.7,0.7H8.38c-0.39,0-0.7-0.32-0.7-0.7v-9.8  c0-0.39,0.32-0.7,0.7-0.7h18.24c0.39,0,0.7,0.32,0.7,0.7V23.28z M17.66,16.35c-1.81,0-3.28,1.48-3.28,3.29  c0,1.81,1.47,3.29,3.28,3.29c1.81,0,3.29-1.48,3.29-3.29C20.95,17.83,19.47,16.35,17.66,16.35z M17.66,21.5  c-0.91,0-1.65-0.74-1.65-1.65c0-0.91,0.74-1.65,1.65-1.65c0.91,0,1.65,0.74,1.65,1.65C19.31,20.76,18.57,21.5,17.66,21.5z"/>
  </symbol>
  <symbol id="icon-up" viewBox="0 0 35 35">
    <path d="M17.5 8.75l-12.25 17.5h6.25v8.75h12.5v-8.75h6.25z"/>
  </symbol>
  <symbol id="icon-down" viewBox="0 0 35 35">
    <path d="M17.5 26.25l12.25-17.5h-6.25v-8.75h-12.5v8.75h-6.25z"/>
  </symbol>
  <symbol id="icon-export" viewBox="0 0 35 35">
    <path d="M29.94 8.44V2.5a1.56 1.56 0 0 0-1.56-1.56H7.5a1.56 1.56 0 0 0-1.56 1.56v5.94H0v9.38h6.94v11.25H17.5V18.81h11.44V8.44zM9.06 4.06h16.88v4.38H9.06zm16.88 26.25H9.06v-9.38h16.88z"/>
  </symbol>
  <symbol id="icon-import" viewBox="0 0 35 35">
    <path d="M29.94 26.25V20.31a1.56 1.56 0 0 0-1.56-1.56H7.5a1.56 1.56 0 0 0-1.56 1.56v5.94H0V35h6.94v-9.38h11.56v-6.37H28.5V35h6.94v-8.75zM9.06 22.69h16.88v4.38H9.06zm16.88-14.06H9.06V4.06h16.88z"/>
  </symbol>
  <symbol id="icon-edit" viewBox="0 0 35 35">
    <path d="M28.56 2.19L31.81.94a1.38 1.38 0 0 1 1.94 1.94l-2.25 2.25-1.94-1.94zM2.56 20.81l-2.25 9.75a1.38 1.38 0 0 0 1.69 1.69l9.75-2.25 16.56-16.56-9.75-9.75-16.56 16.56zm2.94 9.75l.31-.31L23.31 7l-2.25-2.25L3.81 28.25h.69v.75h.75z"/>
  </symbol>
</svg>
